# xmcd CD database file
#
# Track frame offsets:
#	150
#	13992
#	20325
#	35657
#	50925
#	60787
#	74157
#	89497
#	102465
#	129810
#	146132
#	159772
#	174937
#	186630
#	199962
#	212380
#	224167
#	234757
#
# Disc length: 3286 seconds
#
# Revision: 0
# Processed by: cddbd v1.4PL0 Copyright (c) Steve Scherf et al.
# Submitted via: CDex 1.50beta10
#
DISCID=0d0cd412
DTITLE=Josh White - Hard Time Blues
DYEAR=1900
DGENRE=Blues
TTITLE0=John Henry
TTITLE1=Cotton Eyed Jim
TTITLE2=One Meat Ball
TTITLE3=Careless Love
TTITLE4=Motherless Children
TTITLE5=Prison Bound
TTITLE6=Hard Times Blues
TTITLE7=St. James Infirmary
TTITLE8=Pure Religion Halilu
TTITLE9=Waltzing Matilda
TTITLE10=Miss Otis Regrets
TTITLE11=Told My Captain
TTITLE12=Jerry
TTITLE13=No. 12 Train
TTITLE14=Trouble
TTITLE15=The Riddle Song
TTITLE16=The House I Live In
TTITLE17=Joshua Fit the Battle of Jerico
EXTD=
EXTT0=
EXTT1=
EXTT2=
EXTT3=
EXTT4=
EXTT5=
EXTT6=
EXTT7=
EXTT8=
EXTT9=
EXTT10=
EXTT11=
EXTT12=
EXTT13=
EXTT14=
EXTT15=
EXTT16=
EXTT17=
PLAYORDER=
